<?xml version="1.0" standalone="no"?>
<!DOCTYPE svg PUBLIC "-//W3C//DTD SVG 20010904//EN"
 "http://www.w3.org/TR/2001/REC-SVG-20010904/DTD/svg10.dtd">
<svg version="1.0" xmlns="http://www.w3.org/2000/svg"
 width="741.000000pt" height="1052.000000pt" viewBox="0 0 741.000000 1052.000000"
 preserveAspectRatio="xMidYMid meet">

<g transform="translate(0.000000,1052.000000) scale(0.100000,-0.100000)"
fill="#000000" stroke="none">
<path d="M1029 9106 c-108 -29 -196 -109 -254 -231 -74 -157 -88 -295 -82
-810 4 -332 8 -410 25 -525 40 -256 70 -353 141 -452 l30 -43 -35 -125 c-83
-299 -118 -538 -118 -805 0 -192 13 -293 50 -399 12 -33 13 -42 2 -49 -7 -4
-51 -30 -98 -58 -114 -66 -199 -131 -232 -176 -16 -20 -26 -38 -24 -40 7 -8
87 38 180 102 50 34 118 76 152 93 l61 31 21 -45 c30 -61 101 -167 160 -238
l49 -59 -59 -55 c-104 -96 -217 -266 -194 -289 9 -9 51 33 104 102 51 68 172
195 185 195 5 0 33 -21 61 -47 197 -180 451 -346 658 -431 l28 -12 -19 -47
c-11 -27 -63 -154 -116 -283 -233 -569 -371 -989 -410 -1245 -18 -118 -20
-439 -4 -583 35 -321 144 -626 269 -752 120 -122 405 -209 743 -227 l118 -6
59 -58 c39 -38 86 -71 137 -96 67 -32 88 -37 148 -37 58 0 82 5 138 31 37 18
91 54 120 81 l52 48 130 -9 c79 -5 183 -5 265 1 l135 9 55 -50 c65 -60 153
-104 224 -112 98 -12 257 60 336 152 l35 40 120 6 c344 19 621 103 746 228 99
99 193 323 241 574 19 99 25 116 43 120 11 2 61 9 110 15 257 31 524 87 664
141 167 64 367 177 500 282 126 100 236 272 277 432 26 102 24 274 -4 388 -49
196 -139 391 -225 484 -46 50 -135 97 -214 113 -31 7 -98 10 -148 8 -110 -5
-186 -37 -235 -98 -43 -54 -93 -168 -124 -280 -23 -84 -26 -114 -26 -260 -1
-348 -18 -419 -121 -520 -112 -109 -318 -210 -429 -210 -27 0 -27 1 -39 103
-36 295 -221 838 -548 1605 -3 7 7 17 27 23 158 55 430 232 627 406 45 40 86
73 90 73 13 0 135 -128 185 -195 53 -69 95 -111 104 -102 23 23 -88 189 -192
288 l-60 56 64 79 c35 44 82 111 104 149 23 39 47 80 55 93 l14 23 57 -32 c31
-18 102 -63 157 -100 151 -102 194 -115 139 -44 -28 37 -198 156 -286 201 -38
19 -48 29 -43 42 102 267 76 777 -65 1257 l-29 100 28 40 c75 106 104 202 141
451 44 304 51 804 15 1076 -39 300 -170 478 -370 503 -137 18 -381 -86 -680
-289 -102 -69 -256 -214 -381 -357 l-85 -97 -72 33 c-271 125 -805 202 -1215
176 -382 -25 -657 -79 -864 -171 l-88 -38 -84 97 c-47 54 -133 143 -190 199
-230 221 -662 455 -835 451 -20 0 -57 -6 -82 -13z m266 -105 c100 -38 265
-130 404 -223 72 -49 146 -112 231 -197 127 -128 226 -239 219 -245 -2 -2 -53
-29 -114 -59 l-110 -55 -160 157 c-136 133 -172 163 -240 198 -112 57 -178 77
-260 77 -95 1 -129 -18 -163 -92 -27 -57 -27 -58 -27 -292 1 -217 3 -245 28
-365 15 -71 36 -163 47 -202 l20 -73 -51 -77 c-56 -86 -112 -197 -163 -325
-19 -45 -38 -83 -43 -83 -17 0 -63 103 -82 185 -11 47 -30 150 -43 230 -21
134 -23 177 -23 575 0 368 3 443 17 522 52 275 186 408 383 382 28 -4 86 -21
130 -38z m4392 12 c62 -29 114 -85 153 -169 68 -141 84 -303 77 -786 -5 -382
-17 -510 -68 -728 -21 -89 -67 -188 -84 -180 -6 2 -31 55 -57 117 -50 122 -98
214 -159 304 l-38 56 19 74 c66 252 75 321 75 569 0 226 -1 237 -24 287 -41
91 -114 118 -246 88 -42 -9 -118 -37 -168 -63 -83 -41 -107 -60 -252 -203
l-160 -157 -103 53 c-57 29 -108 57 -113 62 -10 10 181 225 282 316 126 114
417 293 574 353 126 47 203 50 292 7z m-4297 -457 c39 -14 97 -40 127 -58 56
-33 276 -236 313 -288 l20 -28 -111 -68 c-158 -99 -308 -212 -416 -317 -51
-49 -95 -88 -97 -86 -5 5 -49 205 -67 299 -7 36 -12 153 -13 260 -1 210 8 268
47 295 32 22 115 19 197 -9z m4097 9 c38 -27 48 -85 47 -285 0 -102 -6 -221
-13 -265 -13 -81 -60 -297 -67 -304 -2 -2 -46 37 -97 86 -108 105 -258 218
-416 317 l-111 68 37 45 c60 73 237 235 295 270 118 72 274 104 325 68z
m-1941 -71 c-11 -28 -197 -294 -206 -294 -9 0 -196 267 -206 295 -5 13 21 15
206 15 190 0 211 -2 206 -16z m-358 -184 c107 -156 131 -185 152 -185 21 0 45
29 153 185 l128 185 67 -3 c113 -4 107 0 126 -103 21 -116 70 -269 97 -303 15
-19 30 -26 56 -26 31 0 45 10 107 73 40 39 100 109 135 155 34 45 68 82 76 82
25 0 468 -227 597 -307 264 -161 483 -351 596 -516 65 -94 147 -258 195 -387
36 -96 99 -299 111 -356 l7 -30 -98 -18 c-114 -20 -228 -51 -260 -72 -39 -25
-31 -68 20 -105 46 -34 232 -129 339 -173 77 -33 73 -23 84 -212 l6 -121 -83
-7 c-202 -18 -304 -48 -316 -94 -9 -39 21 -84 119 -177 48 -46 88 -86 88 -90
0 -3 -42 -5 -93 -5 -117 0 -249 -16 -296 -37 -65 -28 -13 -35 180 -26 186 9
299 7 299 -5 0 -28 -200 -312 -219 -312 -3 0 -55 29 -115 65 -102 60 -168 86
-183 71 -12 -12 31 -46 144 -113 l115 -68 -49 -44 c-154 -139 -382 -297 -528
-367 -199 -94 -532 -173 -1042 -246 -143 -21 -196 -23 -563 -23 -368 0 -420 2
-565 23 -533 76 -893 165 -1084 268 -174 94 -528 359 -518 388 2 6 50 39 108
74 110 67 139 89 139 105 0 23 -79 -7 -187 -69 l-116 -67 -29 34 c-66 78 -188
259 -188 280 0 15 131 19 284 8 90 -6 181 -8 202 -4 l39 8 -40 18 c-50 22
-180 39 -302 39 -51 0 -93 3 -93 6 0 3 35 38 77 77 129 121 157 174 112 216
-28 25 -87 40 -244 60 l-130 17 2 109 c2 61 5 128 8 151 6 40 7 41 83 74 124
54 284 136 330 169 50 37 58 80 20 105 -35 22 -141 52 -256 72 l-103 18 7 30
c12 57 75 261 111 356 48 129 132 295 195 388 115 166 340 360 610 523 141 86
561 299 587 299 9 -1 41 -35 71 -78 65 -90 196 -227 225 -234 72 -18 116 65
166 310 13 59 24 109 25 111 5 6 116 19 147 17 23 -1 44 -25 155 -186z m-372
118 c-13 -81 -56 -239 -76 -279 -25 -47 -33 -45 -106 33 -48 51 -164 199 -164
210 0 11 274 75 329 77 22 1 23 -1 17 -41z m1174 22 c121 -25 220 -51 220 -59
0 -11 -104 -144 -158 -203 -78 -84 -87 -87 -112 -38 -20 38 -80 266 -80 302 0
23 12 22 130 -2z m-2959 -1760 c119 -25 167 -38 174 -50 3 -4 -10 -17 -27 -28
-41 -25 -213 -112 -292 -146 l-58 -26 6 48 c4 26 14 86 23 135 l16 87 32 0
c18 0 75 -9 126 -20z m4798 -104 c13 -68 22 -129 20 -135 -4 -12 -372 169
-373 183 -2 19 211 73 295 75 l36 1 22 -124z m-4839 -590 c109 -17 150 -30
150 -48 0 -14 -163 -177 -223 -222 -24 -18 -41 -26 -47 -20 -15 15 -50 160
-57 236 l-6 68 44 0 c24 0 87 -7 139 -14z m4877 -54 c-7 -76 -42 -221 -57
-236 -11 -11 -75 39 -189 150 -46 45 -81 88 -79 95 8 24 155 54 282 58 l49 1
-6 -68z m-3799 -1266 c500 -126 985 -176 1502 -156 313 12 701 70 1044 156 76
19 144 33 151 30 6 -2 37 -64 68 -138 82 -196 217 -535 217 -546 0 -6 -46 -34
-102 -63 -132 -67 -204 -112 -250 -157 -93 -89 -18 -136 318 -202 87 -17 168
-33 179 -35 17 -3 26 -26 53 -122 49 -179 59 -157 -98 -212 -444 -154 -440
-220 20 -421 l155 -68 -3 -78 c-11 -312 -148 -710 -278 -809 -119 -91 -365
-157 -668 -181 l-89 -7 7 34 c28 138 37 236 26 301 -7 37 -16 68 -21 68 -13 0
-38 -94 -49 -189 -25 -197 -52 -262 -140 -326 -132 -97 -256 -100 -376 -9 -69
53 -113 146 -154 324 -7 30 -24 79 -38 109 -24 52 -26 53 -35 30 -14 -38 -1
-155 31 -264 20 -70 26 -102 18 -107 -13 -9 -407 -11 -429 -3 -11 5 -9 24 15
108 32 112 45 228 31 266 -9 23 -11 22 -35 -30 -14 -30 -37 -103 -53 -164 -35
-139 -65 -203 -116 -250 -118 -106 -250 -112 -387 -18 -96 66 -127 135 -152
338 -11 93 -36 185 -50 185 -30 0 -27 -213 6 -369 l7 -34 -94 7 c-326 24 -590
104 -694 212 -49 50 -120 188 -160 309 -50 152 -111 524 -89 545 5 4 50 25 99
45 153 62 313 145 360 187 101 89 40 144 -293 263 -154 55 -142 29 -89 209 17
60 39 112 47 117 8 4 88 21 178 38 339 65 418 114 325 202 -52 49 -80 68 -223
144 -69 37 -127 69 -129 71 -5 5 24 80 139 364 115 283 137 330 150 330 6 0
73 -15 148 -34z m4447 -371 c80 -21 142 -60 187 -120 21 -28 38 -53 38 -57 0
-9 -173 -111 -244 -144 -30 -14 -85 -31 -123 -39 -70 -15 -305 -37 -312 -29
-9 8 41 172 73 239 40 86 83 130 144 149 62 19 164 20 237 1z m294 -319 c17
-41 31 -81 31 -88 0 -16 -194 -117 -285 -149 -72 -26 -220 -35 -389 -24 l-116
7 0 62 0 63 113 6 c228 13 322 43 532 165 38 22 72 39 76 36 4 -2 21 -37 38
-78z m-4942 -165 c32 -21 67 -48 77 -59 19 -22 19 -22 -18 -37 -76 -32 -418
-106 -431 -93 -5 5 87 275 106 309 9 18 15 17 109 -31 54 -28 125 -68 157 -89z
m3269 -32 c30 -83 52 -154 49 -157 -13 -13 -357 61 -432 94 l-38 16 43 36 c56
49 304 184 315 173 5 -5 33 -78 63 -162z m1745 -16 c26 -122 26 -340 0 -366
-16 -16 -192 -37 -309 -37 -131 0 -180 13 -394 107 l-128 56 0 73 0 74 27 -6
c15 -4 113 -8 218 -8 184 -1 193 0 270 27 44 15 127 52 185 82 58 30 108 54
112 54 4 1 12 -25 19 -56z m-701 -358 c169 -75 246 -97 360 -102 62 -2 148 1
210 10 58 8 107 13 109 11 4 -4 -40 -94 -70 -143 l-20 -34 -117 7 c-64 4 -164
15 -223 25 -122 21 -179 47 -306 143 -83 61 -94 78 -77 122 7 17 6 17 134 -39z
m-70 -144 c147 -110 223 -134 489 -161 58 -5 107 -13 110 -16 9 -9 -74 -78
-179 -148 -108 -73 -254 -149 -385 -200 l-90 -36 -69 73 c-78 81 -109 140
-133 252 l-17 77 57 50 c31 27 73 76 93 109 20 32 38 59 40 59 2 0 40 -27 84
-59z m-4612 -87 c118 -39 285 -115 297 -133 18 -30 -79 -90 -293 -183 -73 -32
-137 -58 -142 -58 -19 0 -6 340 15 398 6 16 1 17 123 -24z m3814 -10 c14 -75
22 -364 10 -364 -7 0 -71 26 -144 58 -211 92 -311 153 -293 182 17 28 379 175
410 166 5 -1 13 -20 17 -42z m492 -179 c23 -99 55 -159 121 -232 30 -34 55
-63 55 -66 0 -2 -28 -10 -62 -17 -35 -6 -68 -13 -75 -15 -7 -2 -42 33 -78 78
-63 80 -95 144 -109 218 -6 36 -5 37 51 72 32 19 63 36 69 36 6 1 18 -33 28
-74z m-204 -39 c0 -50 45 -150 100 -222 42 -54 56 -80 48 -85 -17 -8 -347 -54
-352 -48 -2 2 1 65 6 139 5 74 7 150 4 168 -3 17 -2 32 2 33 4 1 36 7 72 14
92 17 120 18 120 1z"/>
<path d="M2182 7440 c-112 -23 -291 -170 -206 -170 9 0 44 21 80 46 82 58 134
74 248 74 115 0 138 6 134 34 -3 20 -9 21 -108 23 -58 0 -124 -3 -148 -7z"/>
<path d="M4244 7436 c-15 -40 0 -46 123 -46 137 -1 165 -9 255 -73 64 -46 91
-56 102 -38 11 17 -4 36 -57 75 -99 74 -146 89 -289 94 -111 4 -128 3 -134
-12z"/>
<path d="M2142 6829 c-216 -33 -405 -196 -457 -394 -17 -68 -19 -170 -4 -235
40 -176 195 -333 384 -393 102 -31 251 -29 358 6 235 76 379 266 378 497 0
112 -26 196 -91 288 -122 173 -346 265 -568 231z m358 -219 c62 -32 93 -81 98
-155 4 -52 0 -70 -19 -104 -68 -121 -242 -135 -325 -25 -26 34 -29 45 -29 114
0 68 3 80 28 113 57 75 164 99 247 57z m-575 -444 c11 -8 18 -26 18 -46 0 -38
-23 -60 -64 -60 -30 0 -59 31 -59 62 0 45 66 73 105 44z"/>
<path d="M4333 6826 c-199 -38 -366 -175 -429 -354 -29 -82 -33 -219 -8 -303
76 -261 364 -427 652 -375 125 22 219 71 307 159 108 108 155 216 155 357 0
141 -47 249 -154 356 -136 136 -332 196 -523 160z m27 -216 c76 -39 117 -128
98 -212 -38 -172 -281 -201 -358 -43 -46 95 -12 207 78 255 50 26 131 26 182
0z m480 -450 c39 -39 14 -100 -42 -100 -28 0 -68 30 -68 51 0 15 21 53 34 61
20 14 56 8 76 -12z"/>
<path d="M3220 6209 c-19 -6 -41 -15 -47 -21 -60 -50 100 -287 177 -263 29 9
97 91 125 151 51 109 27 137 -124 141 -53 1 -112 -2 -131 -8z"/>
<path d="M2995 5760 c-10 -32 15 -102 49 -136 59 -59 158 -58 245 1 l51 35 57
-37 c51 -35 62 -38 124 -38 75 0 110 18 141 71 35 61 31 145 -6 115 -9 -8 -21
-31 -28 -53 -16 -54 -49 -78 -109 -78 -40 0 -58 7 -113 45 l-66 45 -66 -45
c-55 -38 -73 -45 -114 -45 -60 0 -90 24 -114 93 -18 49 -40 61 -51 27z"/>
</g>
</svg>
